<svg xmlns="http://www.w3.org/2000/svg" viewBox="0 0 64 64" role="img" aria-label="VG">
  <defs>
    <linearGradient id="bg" x1="0" y1="0" x2="1" y2="1">
      <stop offset="0%" stop-color="#111827"/>
      <stop offset="100%" stop-color="#334155"/>
    </linearGradient>
  </defs>
  <rect width="64" height="64" rx="14" fill="url(#bg)"/>
  <path d="M16 20l10 24h4l10-24h-5l-7 17-7-17h-5z" fill="#fff"/>
  <path d="M49 37c0 4-3 7-8 7-5 0-8-3-8-8v-1c0-5 3-8 8-8 3 0 6 1 7 4l-4 2c-1-1-2-2-4-2-3 0-4 2-4 4v1c0 3 2 4 4 4 2 0 4-1 4-3h-4v-4h9v4z" fill="#fff"/>
</svg>
